<mxfile host="app.diagrams.net" agent="Mozilla/5.0 (Windows NT 10.0; Win64; x64; rv:141.0) Gecko/20100101 Firefox/141.0" version="28.1.0">
  <diagram name="Page-1" id="H2bf61omzNCFid4tN3ew">
    <mxGraphModel dx="2951" dy="1587" grid="1" gridSize="10" guides="1" tooltips="1" connect="1" arrows="1" fold="1" page="1" pageScale="1" pageWidth="1654" pageHeight="1169" math="0" shadow="0">
      <root>
        <mxCell id="0" />
        <mxCell id="1" parent="0" />
        <mxCell id="5RMnCzaU7pHUcLIJU3OS-1" value="«Component»&lt;br&gt;Viewer" style="html=1;dropTarget=0;whiteSpace=wrap;" parent="1" vertex="1">
          <mxGeometry x="30" y="550" width="490" height="350" as="geometry" />
        </mxCell>
        <mxCell id="5RMnCzaU7pHUcLIJU3OS-2" value="" style="shape=module;jettyWidth=8;jettyHeight=4;" parent="5RMnCzaU7pHUcLIJU3OS-1" vertex="1">
          <mxGeometry x="1" width="20" height="20" relative="1" as="geometry">
            <mxPoint x="-27" y="7" as="offset" />
          </mxGeometry>
        </mxCell>
        <mxCell id="5RMnCzaU7pHUcLIJU3OS-3" value="&lt;div&gt;«Component»&lt;/div&gt;&lt;div&gt;Model&lt;/div&gt;" style="html=1;dropTarget=0;whiteSpace=wrap;" parent="1" vertex="1">
          <mxGeometry x="1150" y="550" width="470" height="350" as="geometry" />
        </mxCell>
        <mxCell id="5RMnCzaU7pHUcLIJU3OS-4" value="" style="shape=module;jettyWidth=8;jettyHeight=4;" parent="5RMnCzaU7pHUcLIJU3OS-3" vertex="1">
          <mxGeometry x="1" width="20" height="20" relative="1" as="geometry">
            <mxPoint x="-27" y="7" as="offset" />
          </mxGeometry>
        </mxCell>
        <mxCell id="yqvrMv8y5e3eXvTjdBnH-1" value="&lt;div&gt;«Component»&lt;/div&gt;&lt;div&gt;Controller&lt;/div&gt;" style="html=1;dropTarget=0;whiteSpace=wrap;verticalAlign=top;" vertex="1" parent="1">
          <mxGeometry x="587" y="40" width="480" height="350" as="geometry" />
        </mxCell>
        <mxCell id="yqvrMv8y5e3eXvTjdBnH-2" value="" style="shape=module;jettyWidth=8;jettyHeight=4;" vertex="1" parent="yqvrMv8y5e3eXvTjdBnH-1">
          <mxGeometry x="1" width="20" height="20" relative="1" as="geometry">
            <mxPoint x="-27" y="7" as="offset" />
          </mxGeometry>
        </mxCell>
        <mxCell id="yqvrMv8y5e3eXvTjdBnH-3" value="&lt;div&gt;«Component»&lt;/div&gt;&lt;div&gt;Account view&lt;/div&gt;" style="html=1;dropTarget=0;whiteSpace=wrap;" vertex="1" parent="1">
          <mxGeometry x="250" y="582.5" width="150" height="40" as="geometry" />
        </mxCell>
        <mxCell id="yqvrMv8y5e3eXvTjdBnH-4" value="" style="shape=module;jettyWidth=8;jettyHeight=4;" vertex="1" parent="yqvrMv8y5e3eXvTjdBnH-3">
          <mxGeometry x="1" width="20" height="20" relative="1" as="geometry">
            <mxPoint x="-27" y="7" as="offset" />
          </mxGeometry>
        </mxCell>
        <mxCell id="yqvrMv8y5e3eXvTjdBnH-5" value="" style="rounded=0;orthogonalLoop=1;jettySize=auto;html=1;endArrow=halfCircle;endFill=0;endSize=6;strokeWidth=1;sketch=0;startArrow=box;startFill=0;edgeStyle=elbowEdgeStyle;" edge="1" parent="1">
          <mxGeometry relative="1" as="geometry">
            <mxPoint x="590" y="60" as="sourcePoint" />
            <mxPoint x="360" y="60" as="targetPoint" />
            <Array as="points">
              <mxPoint x="580" y="50" />
            </Array>
          </mxGeometry>
        </mxCell>
        <mxCell id="yqvrMv8y5e3eXvTjdBnH-6" value="" style="rounded=0;orthogonalLoop=1;jettySize=auto;html=1;endArrow=oval;endFill=0;sketch=0;sourcePerimeterSpacing=0;targetPerimeterSpacing=0;endSize=10;exitX=0.024;exitY=0.01;exitDx=0;exitDy=0;exitPerimeter=0;startArrow=box;startFill=0;edgeStyle=elbowEdgeStyle;" edge="1" parent="1" source="5RMnCzaU7pHUcLIJU3OS-1">
          <mxGeometry relative="1" as="geometry">
            <mxPoint x="750" y="555" as="sourcePoint" />
            <mxPoint x="360" y="60" as="targetPoint" />
            <Array as="points">
              <mxPoint x="42" y="310" />
            </Array>
          </mxGeometry>
        </mxCell>
        <mxCell id="yqvrMv8y5e3eXvTjdBnH-11" value="Update User Information" style="edgeLabel;html=1;align=center;verticalAlign=middle;resizable=0;points=[];" vertex="1" connectable="0" parent="yqvrMv8y5e3eXvTjdBnH-6">
          <mxGeometry x="0.654" y="1" relative="1" as="geometry">
            <mxPoint x="-1" y="11" as="offset" />
          </mxGeometry>
        </mxCell>
        <mxCell id="yqvrMv8y5e3eXvTjdBnH-7" value="" style="ellipse;whiteSpace=wrap;html=1;align=center;aspect=fixed;fillColor=none;strokeColor=none;resizable=0;perimeter=centerPerimeter;rotatable=0;allowArrows=0;points=[];outlineConnect=1;" vertex="1" parent="1">
          <mxGeometry x="765" y="550" width="10" height="10" as="geometry" />
        </mxCell>
        <mxCell id="yqvrMv8y5e3eXvTjdBnH-10" value="" style="ellipse;whiteSpace=wrap;html=1;align=center;aspect=fixed;fillColor=none;strokeColor=none;resizable=0;perimeter=centerPerimeter;rotatable=0;allowArrows=0;points=[];outlineConnect=1;" vertex="1" parent="1">
          <mxGeometry x="825" y="600" width="10" height="10" as="geometry" />
        </mxCell>
        <mxCell id="yqvrMv8y5e3eXvTjdBnH-12" value="" style="rounded=0;orthogonalLoop=1;jettySize=auto;html=1;endArrow=halfCircle;endFill=0;endSize=6;strokeWidth=1;sketch=0;edgeStyle=elbowEdgeStyle;startArrow=box;startFill=0;" edge="1" parent="1">
          <mxGeometry relative="1" as="geometry">
            <mxPoint x="1065" y="100" as="sourcePoint" />
            <mxPoint x="1300" y="100" as="targetPoint" />
            <Array as="points">
              <mxPoint x="1180" y="70" />
            </Array>
          </mxGeometry>
        </mxCell>
        <mxCell id="yqvrMv8y5e3eXvTjdBnH-13" value="" style="rounded=0;orthogonalLoop=1;jettySize=auto;html=1;endArrow=oval;endFill=0;sketch=0;sourcePerimeterSpacing=0;targetPerimeterSpacing=0;endSize=10;exitX=0.916;exitY=0.009;exitDx=0;exitDy=0;exitPerimeter=0;edgeStyle=elbowEdgeStyle;startArrow=box;startFill=0;" edge="1" parent="1" source="5RMnCzaU7pHUcLIJU3OS-3">
          <mxGeometry relative="1" as="geometry">
            <mxPoint x="1260" y="75" as="sourcePoint" />
            <mxPoint x="1300" y="100" as="targetPoint" />
            <Array as="points">
              <mxPoint x="1580" y="330" />
            </Array>
          </mxGeometry>
        </mxCell>
        <mxCell id="yqvrMv8y5e3eXvTjdBnH-15" value="Update profile" style="edgeLabel;html=1;align=center;verticalAlign=middle;resizable=0;points=[];" vertex="1" connectable="0" parent="yqvrMv8y5e3eXvTjdBnH-13">
          <mxGeometry x="0.6354" relative="1" as="geometry">
            <mxPoint x="1" y="10" as="offset" />
          </mxGeometry>
        </mxCell>
        <mxCell id="yqvrMv8y5e3eXvTjdBnH-14" value="" style="ellipse;whiteSpace=wrap;html=1;align=center;aspect=fixed;fillColor=none;strokeColor=none;resizable=0;perimeter=centerPerimeter;rotatable=0;allowArrows=0;points=[];outlineConnect=1;" vertex="1" parent="1">
          <mxGeometry x="1275" y="70" width="10" height="10" as="geometry" />
        </mxCell>
        <mxCell id="yqvrMv8y5e3eXvTjdBnH-16" value="&lt;div&gt;«Component»&lt;/div&gt;&lt;div&gt;Profile view&lt;/div&gt;" style="html=1;dropTarget=0;whiteSpace=wrap;" vertex="1" parent="1">
          <mxGeometry x="30" y="585" width="140" height="35" as="geometry" />
        </mxCell>
        <mxCell id="yqvrMv8y5e3eXvTjdBnH-17" value="" style="shape=module;jettyWidth=8;jettyHeight=4;" vertex="1" parent="yqvrMv8y5e3eXvTjdBnH-16">
          <mxGeometry x="1" width="20" height="20" relative="1" as="geometry">
            <mxPoint x="-27" y="7" as="offset" />
          </mxGeometry>
        </mxCell>
        <mxCell id="yqvrMv8y5e3eXvTjdBnH-19" value="" style="endArrow=none;html=1;rounded=0;startArrow=box;startFill=0;edgeStyle=elbowEdgeStyle;exitX=0.113;exitY=-0.003;exitDx=0;exitDy=0;exitPerimeter=0;entryX=0.024;entryY=-0.003;entryDx=0;entryDy=0;entryPerimeter=0;" edge="1" parent="1" source="yqvrMv8y5e3eXvTjdBnH-16" target="5RMnCzaU7pHUcLIJU3OS-1">
          <mxGeometry width="50" height="50" relative="1" as="geometry">
            <mxPoint x="43" y="588" as="sourcePoint" />
            <mxPoint x="40" y="549" as="targetPoint" />
            <Array as="points">
              <mxPoint x="42" y="570" />
            </Array>
          </mxGeometry>
        </mxCell>
        <mxCell id="yqvrMv8y5e3eXvTjdBnH-20" value="«Component»&lt;br&gt;Profile controller" style="html=1;dropTarget=0;whiteSpace=wrap;" vertex="1" parent="1">
          <mxGeometry x="750" y="90" width="140" height="50" as="geometry" />
        </mxCell>
        <mxCell id="yqvrMv8y5e3eXvTjdBnH-21" value="" style="shape=module;jettyWidth=8;jettyHeight=4;" vertex="1" parent="yqvrMv8y5e3eXvTjdBnH-20">
          <mxGeometry x="1" width="20" height="20" relative="1" as="geometry">
            <mxPoint x="-27" y="7" as="offset" />
          </mxGeometry>
        </mxCell>
        <mxCell id="yqvrMv8y5e3eXvTjdBnH-22" value="" style="endArrow=box;html=1;rounded=0;endFill=0;edgeStyle=elbowEdgeStyle;entryX=0;entryY=0.25;entryDx=0;entryDy=0;" edge="1" parent="1" target="yqvrMv8y5e3eXvTjdBnH-20">
          <mxGeometry width="50" height="50" relative="1" as="geometry">
            <mxPoint x="590" y="60" as="sourcePoint" />
            <mxPoint x="690" y="95" as="targetPoint" />
          </mxGeometry>
        </mxCell>
        <mxCell id="yqvrMv8y5e3eXvTjdBnH-23" value="" style="endArrow=none;html=1;rounded=0;exitX=0.979;exitY=0.496;exitDx=0;exitDy=0;edgeStyle=elbowEdgeStyle;startArrow=box;startFill=0;exitPerimeter=0;" edge="1" parent="1" source="yqvrMv8y5e3eXvTjdBnH-20">
          <mxGeometry width="50" height="50" relative="1" as="geometry">
            <mxPoint x="830" y="560" as="sourcePoint" />
            <mxPoint x="1070" y="100" as="targetPoint" />
          </mxGeometry>
        </mxCell>
        <mxCell id="yqvrMv8y5e3eXvTjdBnH-25" value="" style="rounded=0;orthogonalLoop=1;jettySize=auto;html=1;endArrow=halfCircle;endFill=0;endSize=6;strokeWidth=1;sketch=0;exitX=1.001;exitY=0.227;exitDx=0;exitDy=0;exitPerimeter=0;edgeStyle=elbowEdgeStyle;startArrow=box;startFill=0;" edge="1" parent="1" source="yqvrMv8y5e3eXvTjdBnH-1">
          <mxGeometry relative="1" as="geometry">
            <mxPoint x="1230" y="255" as="sourcePoint" />
            <mxPoint x="1340" y="140" as="targetPoint" />
          </mxGeometry>
        </mxCell>
        <mxCell id="yqvrMv8y5e3eXvTjdBnH-26" value="" style="rounded=0;orthogonalLoop=1;jettySize=auto;html=1;endArrow=oval;endFill=0;sketch=0;sourcePerimeterSpacing=0;targetPerimeterSpacing=0;endSize=10;exitX=0.848;exitY=-0.002;exitDx=0;exitDy=0;exitPerimeter=0;edgeStyle=elbowEdgeStyle;startArrow=box;startFill=0;" edge="1" parent="1" source="5RMnCzaU7pHUcLIJU3OS-3">
          <mxGeometry relative="1" as="geometry">
            <mxPoint x="1190" y="255" as="sourcePoint" />
            <mxPoint x="1340" y="140" as="targetPoint" />
            <Array as="points">
              <mxPoint x="1547" y="410" />
            </Array>
          </mxGeometry>
        </mxCell>
        <mxCell id="yqvrMv8y5e3eXvTjdBnH-28" value="Get profile" style="edgeLabel;html=1;align=center;verticalAlign=middle;resizable=0;points=[];" vertex="1" connectable="0" parent="yqvrMv8y5e3eXvTjdBnH-26">
          <mxGeometry x="0.5585" relative="1" as="geometry">
            <mxPoint x="-26" y="10" as="offset" />
          </mxGeometry>
        </mxCell>
        <mxCell id="yqvrMv8y5e3eXvTjdBnH-27" value="" style="ellipse;whiteSpace=wrap;html=1;align=center;aspect=fixed;fillColor=none;strokeColor=none;resizable=0;perimeter=centerPerimeter;rotatable=0;allowArrows=0;points=[];outlineConnect=1;" vertex="1" parent="1">
          <mxGeometry x="1205" y="250" width="10" height="10" as="geometry" />
        </mxCell>
        <mxCell id="yqvrMv8y5e3eXvTjdBnH-29" value="" style="rounded=0;orthogonalLoop=1;jettySize=auto;html=1;endArrow=halfCircle;endFill=0;endSize=6;strokeWidth=1;sketch=0;exitX=0.006;exitY=0.114;exitDx=0;exitDy=0;exitPerimeter=0;edgeStyle=elbowEdgeStyle;startArrow=box;startFill=0;" edge="1" target="yqvrMv8y5e3eXvTjdBnH-31" parent="1" source="yqvrMv8y5e3eXvTjdBnH-1">
          <mxGeometry relative="1" as="geometry">
            <mxPoint x="250" y="115" as="sourcePoint" />
          </mxGeometry>
        </mxCell>
        <mxCell id="yqvrMv8y5e3eXvTjdBnH-30" value="" style="rounded=0;orthogonalLoop=1;jettySize=auto;html=1;endArrow=oval;endFill=0;sketch=0;sourcePerimeterSpacing=0;targetPerimeterSpacing=0;endSize=10;edgeStyle=elbowEdgeStyle;startArrow=box;startFill=0;exitX=0.066;exitY=0.002;exitDx=0;exitDy=0;exitPerimeter=0;" edge="1" target="yqvrMv8y5e3eXvTjdBnH-31" parent="1" source="5RMnCzaU7pHUcLIJU3OS-1">
          <mxGeometry relative="1" as="geometry">
            <mxPoint x="60" y="550" as="sourcePoint" />
            <Array as="points">
              <mxPoint x="60" y="350" />
            </Array>
          </mxGeometry>
        </mxCell>
        <mxCell id="yqvrMv8y5e3eXvTjdBnH-32" value="Get User Information" style="edgeLabel;html=1;align=center;verticalAlign=middle;resizable=0;points=[];" vertex="1" connectable="0" parent="yqvrMv8y5e3eXvTjdBnH-30">
          <mxGeometry x="0.8642" y="2" relative="1" as="geometry">
            <mxPoint y="27" as="offset" />
          </mxGeometry>
        </mxCell>
        <mxCell id="yqvrMv8y5e3eXvTjdBnH-31" value="" style="ellipse;whiteSpace=wrap;html=1;align=center;aspect=fixed;fillColor=none;strokeColor=none;resizable=0;perimeter=centerPerimeter;rotatable=0;allowArrows=0;points=[];outlineConnect=1;" vertex="1" parent="1">
          <mxGeometry x="225" y="110" width="10" height="10" as="geometry" />
        </mxCell>
        <mxCell id="yqvrMv8y5e3eXvTjdBnH-33" value="" style="endArrow=none;html=1;rounded=0;exitX=0.196;exitY=0.079;exitDx=0;exitDy=0;exitPerimeter=0;edgeStyle=elbowEdgeStyle;entryX=0.058;entryY=0.006;entryDx=0;entryDy=0;entryPerimeter=0;startArrow=box;startFill=0;" edge="1" parent="1" source="yqvrMv8y5e3eXvTjdBnH-16" target="5RMnCzaU7pHUcLIJU3OS-1">
          <mxGeometry width="50" height="50" relative="1" as="geometry">
            <mxPoint x="470" y="430" as="sourcePoint" />
            <mxPoint x="520" y="380" as="targetPoint" />
          </mxGeometry>
        </mxCell>
        <mxCell id="yqvrMv8y5e3eXvTjdBnH-34" value="" style="endArrow=none;html=1;rounded=0;strokeColor=default;align=center;verticalAlign=middle;fontFamily=Helvetica;fontSize=12;fontColor=default;labelBackgroundColor=default;edgeStyle=elbowEdgeStyle;entryX=1.007;entryY=0.233;entryDx=0;entryDy=0;entryPerimeter=0;exitX=0.994;exitY=0.845;exitDx=0;exitDy=0;startArrow=box;startFill=0;exitPerimeter=0;" edge="1" parent="1" source="yqvrMv8y5e3eXvTjdBnH-20" target="yqvrMv8y5e3eXvTjdBnH-1">
          <mxGeometry width="50" height="50" relative="1" as="geometry">
            <mxPoint x="700" y="510" as="sourcePoint" />
            <mxPoint x="750" y="460" as="targetPoint" />
            <Array as="points">
              <mxPoint x="1030" y="210" />
            </Array>
          </mxGeometry>
        </mxCell>
        <mxCell id="yqvrMv8y5e3eXvTjdBnH-35" value="«Component»&lt;br&gt;Firestore Database" style="html=1;dropTarget=0;whiteSpace=wrap;strokeColor=default;align=center;verticalAlign=middle;fontFamily=Helvetica;fontSize=12;fontColor=default;fillColor=default;" vertex="1" parent="1">
          <mxGeometry x="1420" y="630" width="130" height="50" as="geometry" />
        </mxCell>
        <mxCell id="yqvrMv8y5e3eXvTjdBnH-36" value="" style="shape=module;jettyWidth=8;jettyHeight=4;strokeColor=default;align=center;verticalAlign=middle;fontFamily=Helvetica;fontSize=12;fontColor=default;fillColor=default;" vertex="1" parent="yqvrMv8y5e3eXvTjdBnH-35">
          <mxGeometry x="1" width="20" height="20" relative="1" as="geometry">
            <mxPoint x="-27" y="7" as="offset" />
          </mxGeometry>
        </mxCell>
        <mxCell id="yqvrMv8y5e3eXvTjdBnH-37" style="edgeStyle=elbowEdgeStyle;shape=connector;rounded=0;orthogonalLoop=1;jettySize=auto;html=1;exitX=0;exitY=1;exitDx=0;exitDy=0;strokeColor=default;align=center;verticalAlign=middle;fontFamily=Helvetica;fontSize=12;fontColor=default;labelBackgroundColor=default;endArrow=none;" edge="1" parent="1" source="yqvrMv8y5e3eXvTjdBnH-35" target="yqvrMv8y5e3eXvTjdBnH-35">
          <mxGeometry relative="1" as="geometry" />
        </mxCell>
        <mxCell id="yqvrMv8y5e3eXvTjdBnH-38" value="" style="endArrow=none;html=1;rounded=0;strokeColor=default;align=center;verticalAlign=middle;fontFamily=Helvetica;fontSize=12;fontColor=default;labelBackgroundColor=default;edgeStyle=elbowEdgeStyle;exitX=0.93;exitY=0.007;exitDx=0;exitDy=0;exitPerimeter=0;startArrow=box;startFill=0;" edge="1" parent="1" source="yqvrMv8y5e3eXvTjdBnH-35">
          <mxGeometry width="50" height="50" relative="1" as="geometry">
            <mxPoint x="1390" y="660" as="sourcePoint" />
            <mxPoint x="1550" y="550" as="targetPoint" />
            <Array as="points" />
          </mxGeometry>
        </mxCell>
        <mxCell id="yqvrMv8y5e3eXvTjdBnH-39" value="" style="endArrow=none;html=1;rounded=0;strokeColor=default;align=center;verticalAlign=middle;fontFamily=Helvetica;fontSize=12;fontColor=default;labelBackgroundColor=default;edgeStyle=elbowEdgeStyle;exitX=0.991;exitY=0.65;exitDx=0;exitDy=0;exitPerimeter=0;startArrow=box;startFill=0;" edge="1" parent="1" source="yqvrMv8y5e3eXvTjdBnH-35">
          <mxGeometry width="50" height="50" relative="1" as="geometry">
            <mxPoint x="1380" y="480" as="sourcePoint" />
            <mxPoint x="1580" y="550" as="targetPoint" />
            <Array as="points">
              <mxPoint x="1580" y="590" />
            </Array>
          </mxGeometry>
        </mxCell>
        <mxCell id="yqvrMv8y5e3eXvTjdBnH-40" value="" style="rounded=0;orthogonalLoop=1;jettySize=auto;html=1;endArrow=halfCircle;endFill=0;endSize=6;strokeWidth=1;sketch=0;strokeColor=default;align=center;verticalAlign=middle;fontFamily=Helvetica;fontSize=12;fontColor=default;labelBackgroundColor=default;edgeStyle=elbowEdgeStyle;startArrow=box;startFill=0;exitX=0.004;exitY=0.43;exitDx=0;exitDy=0;exitPerimeter=0;" edge="1" parent="1" source="yqvrMv8y5e3eXvTjdBnH-1">
          <mxGeometry relative="1" as="geometry">
            <mxPoint x="538.4" y="190" as="sourcePoint" />
            <mxPoint x="373.4" y="190" as="targetPoint" />
          </mxGeometry>
        </mxCell>
        <mxCell id="yqvrMv8y5e3eXvTjdBnH-46" value="Sign in" style="edgeLabel;html=1;align=center;verticalAlign=middle;resizable=0;points=[];strokeColor=default;fontFamily=Helvetica;fontSize=12;fontColor=default;fillColor=default;" vertex="1" connectable="0" parent="yqvrMv8y5e3eXvTjdBnH-40">
          <mxGeometry x="0.3177" y="1" relative="1" as="geometry">
            <mxPoint y="14" as="offset" />
          </mxGeometry>
        </mxCell>
        <mxCell id="yqvrMv8y5e3eXvTjdBnH-41" value="" style="rounded=0;orthogonalLoop=1;jettySize=auto;html=1;endArrow=oval;endFill=0;sketch=0;sourcePerimeterSpacing=0;targetPerimeterSpacing=0;endSize=10;strokeColor=default;align=center;verticalAlign=middle;fontFamily=Helvetica;fontSize=12;fontColor=default;labelBackgroundColor=default;edgeStyle=elbowEdgeStyle;entryX=-0.138;entryY=0.3;entryDx=0;entryDy=0;entryPerimeter=0;startArrow=box;startFill=0;exitX=0.568;exitY=-0.003;exitDx=0;exitDy=0;exitPerimeter=0;" edge="1" parent="1" source="5RMnCzaU7pHUcLIJU3OS-1">
          <mxGeometry relative="1" as="geometry">
            <mxPoint x="311.5999999999998" y="447.10000000000014" as="sourcePoint" />
            <mxPoint x="373.4" y="190" as="targetPoint" />
            <Array as="points">
              <mxPoint x="312.4" y="335" />
            </Array>
          </mxGeometry>
        </mxCell>
        <mxCell id="yqvrMv8y5e3eXvTjdBnH-42" value="" style="ellipse;whiteSpace=wrap;html=1;align=center;aspect=fixed;fillColor=none;strokeColor=none;resizable=0;perimeter=centerPerimeter;rotatable=0;allowArrows=0;points=[];outlineConnect=1;verticalAlign=middle;fontFamily=Helvetica;fontSize=12;fontColor=default;" vertex="1" parent="1">
          <mxGeometry x="420" y="290" width="10" height="10" as="geometry" />
        </mxCell>
        <mxCell id="yqvrMv8y5e3eXvTjdBnH-43" value="" style="rounded=0;orthogonalLoop=1;jettySize=auto;html=1;endArrow=halfCircle;endFill=0;endSize=6;strokeWidth=1;sketch=0;strokeColor=default;align=center;verticalAlign=middle;fontFamily=Helvetica;fontSize=12;fontColor=default;labelBackgroundColor=default;edgeStyle=elbowEdgeStyle;exitX=0.004;exitY=0.585;exitDx=0;exitDy=0;exitPerimeter=0;entryX=0.833;entryY=0.386;entryDx=0;entryDy=0;entryPerimeter=0;startArrow=box;startFill=0;" edge="1" parent="1">
          <mxGeometry relative="1" as="geometry">
            <mxPoint x="588.0199999999996" y="165.65" as="sourcePoint" />
            <mxPoint x="324.1" y="165.9" as="targetPoint" />
            <Array as="points">
              <mxPoint x="349.1" y="230.9" />
            </Array>
          </mxGeometry>
        </mxCell>
        <mxCell id="yqvrMv8y5e3eXvTjdBnH-47" value="Sign up" style="edgeLabel;html=1;align=center;verticalAlign=middle;resizable=0;points=[];strokeColor=default;fontFamily=Helvetica;fontSize=12;fontColor=default;fillColor=default;" vertex="1" connectable="0" parent="yqvrMv8y5e3eXvTjdBnH-43">
          <mxGeometry x="0.0572" relative="1" as="geometry">
            <mxPoint x="41" y="-15" as="offset" />
          </mxGeometry>
        </mxCell>
        <mxCell id="yqvrMv8y5e3eXvTjdBnH-44" value="" style="rounded=0;orthogonalLoop=1;jettySize=auto;html=1;endArrow=oval;endFill=0;sketch=0;sourcePerimeterSpacing=0;targetPerimeterSpacing=0;endSize=10;strokeColor=default;align=center;verticalAlign=middle;fontFamily=Helvetica;fontSize=12;fontColor=default;labelBackgroundColor=default;edgeStyle=elbowEdgeStyle;startArrow=box;startFill=0;" edge="1" parent="1">
          <mxGeometry relative="1" as="geometry">
            <mxPoint x="266" y="550" as="sourcePoint" />
            <mxPoint x="324.1" y="165.9" as="targetPoint" />
            <Array as="points">
              <mxPoint x="269.1" y="320.9" />
            </Array>
          </mxGeometry>
        </mxCell>
        <mxCell id="yqvrMv8y5e3eXvTjdBnH-45" value="" style="ellipse;whiteSpace=wrap;html=1;align=center;aspect=fixed;fillColor=none;strokeColor=none;resizable=0;perimeter=centerPerimeter;rotatable=0;allowArrows=0;points=[];outlineConnect=1;verticalAlign=middle;fontFamily=Helvetica;fontSize=12;fontColor=default;" vertex="1" parent="1">
          <mxGeometry x="320" y="240" width="10" height="10" as="geometry" />
        </mxCell>
        <mxCell id="yqvrMv8y5e3eXvTjdBnH-48" value="" style="endArrow=none;html=1;rounded=0;strokeColor=default;align=center;verticalAlign=middle;fontFamily=Helvetica;fontSize=12;fontColor=default;labelBackgroundColor=default;edgeStyle=elbowEdgeStyle;exitX=0.131;exitY=0.067;exitDx=0;exitDy=0;exitPerimeter=0;startArrow=box;startFill=0;" edge="1" parent="1" source="yqvrMv8y5e3eXvTjdBnH-3">
          <mxGeometry width="50" height="50" relative="1" as="geometry">
            <mxPoint x="530" y="510" as="sourcePoint" />
            <mxPoint x="270" y="550" as="targetPoint" />
          </mxGeometry>
        </mxCell>
        <mxCell id="yqvrMv8y5e3eXvTjdBnH-49" value="" style="endArrow=none;html=1;rounded=0;strokeColor=default;align=center;verticalAlign=middle;fontFamily=Helvetica;fontSize=12;fontColor=default;labelBackgroundColor=default;edgeStyle=elbowEdgeStyle;startArrow=box;startFill=0;exitX=0.75;exitY=0;exitDx=0;exitDy=0;" edge="1" parent="1">
          <mxGeometry width="50" height="50" relative="1" as="geometry">
            <mxPoint x="312.5" y="582.5" as="sourcePoint" />
            <mxPoint x="310" y="550" as="targetPoint" />
            <Array as="points" />
          </mxGeometry>
        </mxCell>
        <mxCell id="yqvrMv8y5e3eXvTjdBnH-50" value="" style="endArrow=box;html=1;rounded=0;strokeColor=default;align=center;verticalAlign=middle;fontFamily=Helvetica;fontSize=12;fontColor=default;labelBackgroundColor=default;edgeStyle=elbowEdgeStyle;entryX=0.006;entryY=0.677;entryDx=0;entryDy=0;entryPerimeter=0;endFill=0;" edge="1" parent="1" target="yqvrMv8y5e3eXvTjdBnH-20">
          <mxGeometry width="50" height="50" relative="1" as="geometry">
            <mxPoint x="590" y="80" as="sourcePoint" />
            <mxPoint x="710" y="160" as="targetPoint" />
            <Array as="points">
              <mxPoint x="650" y="100" />
            </Array>
          </mxGeometry>
        </mxCell>
        <mxCell id="yqvrMv8y5e3eXvTjdBnH-51" value="«Component»&lt;br&gt;Account controller" style="html=1;dropTarget=0;whiteSpace=wrap;strokeColor=default;align=center;verticalAlign=middle;fontFamily=Helvetica;fontSize=12;fontColor=default;fillColor=default;" vertex="1" parent="1">
          <mxGeometry x="745" y="150" width="150" height="50" as="geometry" />
        </mxCell>
        <mxCell id="yqvrMv8y5e3eXvTjdBnH-52" value="" style="shape=module;jettyWidth=8;jettyHeight=4;strokeColor=default;align=center;verticalAlign=middle;fontFamily=Helvetica;fontSize=12;fontColor=default;fillColor=default;" vertex="1" parent="yqvrMv8y5e3eXvTjdBnH-51">
          <mxGeometry x="1" width="20" height="20" relative="1" as="geometry">
            <mxPoint x="-27" y="7" as="offset" />
          </mxGeometry>
        </mxCell>
        <mxCell id="yqvrMv8y5e3eXvTjdBnH-53" value="" style="endArrow=box;html=1;rounded=0;strokeColor=default;align=center;verticalAlign=middle;fontFamily=Helvetica;fontSize=12;fontColor=default;labelBackgroundColor=default;edgeStyle=elbowEdgeStyle;exitX=-0.003;exitY=0.585;exitDx=0;exitDy=0;exitPerimeter=0;endFill=0;entryX=0.013;entryY=0.303;entryDx=0;entryDy=0;entryPerimeter=0;" edge="1" parent="1" target="yqvrMv8y5e3eXvTjdBnH-51">
          <mxGeometry width="50" height="50" relative="1" as="geometry">
            <mxPoint x="584.6599999999995" y="165.65" as="sourcePoint" />
            <mxPoint x="685" y="166" as="targetPoint" />
            <Array as="points">
              <mxPoint x="639.1" y="180.9" />
            </Array>
          </mxGeometry>
        </mxCell>
        <mxCell id="yqvrMv8y5e3eXvTjdBnH-54" value="" style="endArrow=box;html=1;rounded=0;strokeColor=default;align=center;verticalAlign=middle;fontFamily=Helvetica;fontSize=12;fontColor=default;labelBackgroundColor=default;edgeStyle=elbowEdgeStyle;entryX=0.019;entryY=0.747;entryDx=0;entryDy=0;exitX=-0.002;exitY=0.419;exitDx=0;exitDy=0;exitPerimeter=0;endFill=0;entryPerimeter=0;" edge="1" parent="1" source="yqvrMv8y5e3eXvTjdBnH-1" target="yqvrMv8y5e3eXvTjdBnH-51">
          <mxGeometry width="50" height="50" relative="1" as="geometry">
            <mxPoint x="510" y="390" as="sourcePoint" />
            <mxPoint x="560" y="340" as="targetPoint" />
            <Array as="points">
              <mxPoint x="620" y="290" />
            </Array>
          </mxGeometry>
        </mxCell>
        <mxCell id="yqvrMv8y5e3eXvTjdBnH-55" value="«Component»&lt;br&gt;Firebase Authentication" style="html=1;dropTarget=0;whiteSpace=wrap;strokeColor=default;align=center;verticalAlign=middle;fontFamily=Helvetica;fontSize=12;fontColor=default;fillColor=default;" vertex="1" parent="1">
          <mxGeometry x="1220" y="625" width="157" height="60" as="geometry" />
        </mxCell>
        <mxCell id="yqvrMv8y5e3eXvTjdBnH-56" value="" style="shape=module;jettyWidth=8;jettyHeight=4;strokeColor=default;align=center;verticalAlign=middle;fontFamily=Helvetica;fontSize=12;fontColor=default;fillColor=default;" vertex="1" parent="yqvrMv8y5e3eXvTjdBnH-55">
          <mxGeometry x="1" width="20" height="20" relative="1" as="geometry">
            <mxPoint x="-27" y="7" as="offset" />
          </mxGeometry>
        </mxCell>
        <mxCell id="yqvrMv8y5e3eXvTjdBnH-59" value="" style="rounded=0;orthogonalLoop=1;jettySize=auto;html=1;endArrow=halfCircle;endFill=0;endSize=6;strokeWidth=1;sketch=0;strokeColor=default;align=center;verticalAlign=middle;fontFamily=Helvetica;fontSize=12;fontColor=default;labelBackgroundColor=default;edgeStyle=elbowEdgeStyle;exitX=0.364;exitY=0.005;exitDx=0;exitDy=0;exitPerimeter=0;startArrow=box;startFill=0;" edge="1" parent="1" source="5RMnCzaU7pHUcLIJU3OS-3">
          <mxGeometry relative="1" as="geometry">
            <mxPoint x="1791.8199999999997" y="38.950000000000045" as="sourcePoint" />
            <mxPoint x="1230" y="170" as="targetPoint" />
            <Array as="points">
              <mxPoint x="1320" y="260" />
            </Array>
          </mxGeometry>
        </mxCell>
        <mxCell id="yqvrMv8y5e3eXvTjdBnH-60" value="" style="rounded=0;orthogonalLoop=1;jettySize=auto;html=1;endArrow=oval;endFill=0;sketch=0;sourcePerimeterSpacing=0;targetPerimeterSpacing=0;endSize=10;strokeColor=default;align=center;verticalAlign=middle;fontFamily=Helvetica;fontSize=12;fontColor=default;labelBackgroundColor=default;edgeStyle=elbowEdgeStyle;startArrow=box;startFill=0;exitX=0.995;exitY=0.369;exitDx=0;exitDy=0;exitPerimeter=0;" edge="1" parent="1" source="yqvrMv8y5e3eXvTjdBnH-1">
          <mxGeometry relative="1" as="geometry">
            <mxPoint x="1080" y="170" as="sourcePoint" />
            <mxPoint x="1230" y="170" as="targetPoint" />
            <Array as="points">
              <mxPoint x="1110" y="80" />
            </Array>
          </mxGeometry>
        </mxCell>
        <mxCell id="yqvrMv8y5e3eXvTjdBnH-65" value="Create account" style="edgeLabel;html=1;align=center;verticalAlign=middle;resizable=0;points=[];strokeColor=default;fontFamily=Helvetica;fontSize=12;fontColor=default;fillColor=default;" vertex="1" connectable="0" parent="yqvrMv8y5e3eXvTjdBnH-60">
          <mxGeometry x="0.5783" y="3" relative="1" as="geometry">
            <mxPoint x="174" y="88" as="offset" />
          </mxGeometry>
        </mxCell>
        <mxCell id="yqvrMv8y5e3eXvTjdBnH-61" value="" style="ellipse;whiteSpace=wrap;html=1;align=center;aspect=fixed;fillColor=none;strokeColor=none;resizable=0;perimeter=centerPerimeter;rotatable=0;allowArrows=0;points=[];outlineConnect=1;verticalAlign=middle;fontFamily=Helvetica;fontSize=12;fontColor=default;" vertex="1" parent="1">
          <mxGeometry x="955" y="540" width="10" height="10" as="geometry" />
        </mxCell>
        <mxCell id="yqvrMv8y5e3eXvTjdBnH-62" value="" style="rounded=0;orthogonalLoop=1;jettySize=auto;html=1;endArrow=halfCircle;endFill=0;endSize=6;strokeWidth=1;sketch=0;strokeColor=default;align=center;verticalAlign=middle;fontFamily=Helvetica;fontSize=12;fontColor=default;labelBackgroundColor=default;edgeStyle=elbowEdgeStyle;exitX=0.209;exitY=-0.002;exitDx=0;exitDy=0;startArrow=box;startFill=0;exitPerimeter=0;" edge="1" parent="1" source="5RMnCzaU7pHUcLIJU3OS-3">
          <mxGeometry relative="1" as="geometry">
            <mxPoint x="660" y="595" as="sourcePoint" />
            <mxPoint x="1170" y="250" as="targetPoint" />
            <Array as="points">
              <mxPoint x="1250" y="400" />
              <mxPoint x="1248" y="470" />
              <mxPoint x="1040" y="810" />
            </Array>
          </mxGeometry>
        </mxCell>
        <mxCell id="yqvrMv8y5e3eXvTjdBnH-63" value="" style="rounded=0;orthogonalLoop=1;jettySize=auto;html=1;endArrow=oval;endFill=0;sketch=0;sourcePerimeterSpacing=0;targetPerimeterSpacing=0;endSize=10;strokeColor=default;align=center;verticalAlign=middle;fontFamily=Helvetica;fontSize=12;fontColor=default;labelBackgroundColor=default;edgeStyle=elbowEdgeStyle;exitX=0.997;exitY=0.439;exitDx=0;exitDy=0;exitPerimeter=0;startArrow=box;startFill=0;" edge="1" parent="1" source="yqvrMv8y5e3eXvTjdBnH-1">
          <mxGeometry relative="1" as="geometry">
            <mxPoint x="1109.9999999999995" y="-139.99999999999977" as="sourcePoint" />
            <mxPoint x="1170" y="250" as="targetPoint" />
            <Array as="points">
              <mxPoint x="1111" y="81.75" />
            </Array>
          </mxGeometry>
        </mxCell>
        <mxCell id="yqvrMv8y5e3eXvTjdBnH-66" value="Login account" style="edgeLabel;html=1;align=center;verticalAlign=middle;resizable=0;points=[];strokeColor=default;fontFamily=Helvetica;fontSize=12;fontColor=default;fillColor=default;" vertex="1" connectable="0" parent="yqvrMv8y5e3eXvTjdBnH-63">
          <mxGeometry x="0.6452" relative="1" as="geometry">
            <mxPoint x="28" y="20" as="offset" />
          </mxGeometry>
        </mxCell>
        <mxCell id="yqvrMv8y5e3eXvTjdBnH-64" value="" style="ellipse;whiteSpace=wrap;html=1;align=center;aspect=fixed;fillColor=none;strokeColor=none;resizable=0;perimeter=centerPerimeter;rotatable=0;allowArrows=0;points=[];outlineConnect=1;verticalAlign=middle;fontFamily=Helvetica;fontSize=12;fontColor=default;" vertex="1" parent="1">
          <mxGeometry x="635" y="590" width="10" height="10" as="geometry" />
        </mxCell>
        <mxCell id="yqvrMv8y5e3eXvTjdBnH-67" value="" style="endArrow=box;html=1;rounded=0;strokeColor=default;align=center;verticalAlign=middle;fontFamily=Helvetica;fontSize=12;fontColor=default;labelBackgroundColor=default;edgeStyle=elbowEdgeStyle;entryX=1;entryY=0.75;entryDx=0;entryDy=0;exitX=1.005;exitY=0.438;exitDx=0;exitDy=0;exitPerimeter=0;endFill=0;" edge="1" parent="1" source="yqvrMv8y5e3eXvTjdBnH-1" target="yqvrMv8y5e3eXvTjdBnH-51">
          <mxGeometry width="50" height="50" relative="1" as="geometry">
            <mxPoint x="510" y="410" as="sourcePoint" />
            <mxPoint x="560" y="360" as="targetPoint" />
            <Array as="points">
              <mxPoint x="960" y="190" />
            </Array>
          </mxGeometry>
        </mxCell>
        <mxCell id="yqvrMv8y5e3eXvTjdBnH-68" value="" style="endArrow=box;html=1;rounded=0;strokeColor=default;align=center;verticalAlign=middle;fontFamily=Helvetica;fontSize=12;fontColor=default;labelBackgroundColor=default;edgeStyle=elbowEdgeStyle;endFill=0;entryX=1;entryY=0.25;entryDx=0;entryDy=0;exitX=0.995;exitY=0.37;exitDx=0;exitDy=0;exitPerimeter=0;" edge="1" parent="1" source="yqvrMv8y5e3eXvTjdBnH-1" target="yqvrMv8y5e3eXvTjdBnH-51">
          <mxGeometry width="50" height="50" relative="1" as="geometry">
            <mxPoint x="1060" y="170" as="sourcePoint" />
            <mxPoint x="810" y="320" as="targetPoint" />
            <Array as="points">
              <mxPoint x="990" y="260" />
            </Array>
          </mxGeometry>
        </mxCell>
        <mxCell id="yqvrMv8y5e3eXvTjdBnH-69" value="" style="endArrow=none;html=1;rounded=0;strokeColor=default;align=center;verticalAlign=middle;fontFamily=Helvetica;fontSize=12;fontColor=default;labelBackgroundColor=default;edgeStyle=elbowEdgeStyle;exitX=0.217;exitY=0.076;exitDx=0;exitDy=0;exitPerimeter=0;startArrow=box;startFill=0;" edge="1" parent="1" source="yqvrMv8y5e3eXvTjdBnH-55">
          <mxGeometry width="50" height="50" relative="1" as="geometry">
            <mxPoint x="1050" y="520" as="sourcePoint" />
            <mxPoint x="1250" y="550" as="targetPoint" />
          </mxGeometry>
        </mxCell>
        <mxCell id="yqvrMv8y5e3eXvTjdBnH-70" value="" style="endArrow=none;html=1;rounded=0;strokeColor=default;align=center;verticalAlign=middle;fontFamily=Helvetica;fontSize=12;fontColor=default;labelBackgroundColor=default;edgeStyle=elbowEdgeStyle;exitX=0.649;exitY=0.02;exitDx=0;exitDy=0;exitPerimeter=0;entryX=0.352;entryY=0.008;entryDx=0;entryDy=0;entryPerimeter=0;startArrow=box;startFill=0;" edge="1" parent="1" source="yqvrMv8y5e3eXvTjdBnH-55" target="5RMnCzaU7pHUcLIJU3OS-3">
          <mxGeometry width="50" height="50" relative="1" as="geometry">
            <mxPoint x="980" y="580" as="sourcePoint" />
            <mxPoint x="1030" y="530" as="targetPoint" />
          </mxGeometry>
        </mxCell>
        <mxCell id="yqvrMv8y5e3eXvTjdBnH-71" value="«Component»&lt;br&gt;Map view" style="html=1;dropTarget=0;whiteSpace=wrap;strokeColor=default;align=center;verticalAlign=middle;fontFamily=Helvetica;fontSize=12;fontColor=default;fillColor=default;" vertex="1" parent="1">
          <mxGeometry x="365" y="650" width="120" height="60" as="geometry" />
        </mxCell>
        <mxCell id="yqvrMv8y5e3eXvTjdBnH-72" value="" style="shape=module;jettyWidth=8;jettyHeight=4;strokeColor=default;align=center;verticalAlign=middle;fontFamily=Helvetica;fontSize=12;fontColor=default;fillColor=default;" vertex="1" parent="yqvrMv8y5e3eXvTjdBnH-71">
          <mxGeometry x="1" width="20" height="20" relative="1" as="geometry">
            <mxPoint x="-27" y="7" as="offset" />
          </mxGeometry>
        </mxCell>
        <mxCell id="yqvrMv8y5e3eXvTjdBnH-73" value="" style="rounded=0;orthogonalLoop=1;jettySize=auto;html=1;endArrow=oval;endFill=0;endSize=10;strokeWidth=1;sketch=0;strokeColor=default;align=center;verticalAlign=middle;fontFamily=Helvetica;fontSize=12;fontColor=default;labelBackgroundColor=default;edgeStyle=elbowEdgeStyle;startArrow=box;startFill=0;exitX=0.111;exitY=0.993;exitDx=0;exitDy=0;exitPerimeter=0;" edge="1" target="yqvrMv8y5e3eXvTjdBnH-75" parent="1" source="yqvrMv8y5e3eXvTjdBnH-1">
          <mxGeometry relative="1" as="geometry">
            <mxPoint x="640" y="393" as="sourcePoint" />
            <Array as="points">
              <mxPoint x="640" y="410" />
            </Array>
          </mxGeometry>
        </mxCell>
        <mxCell id="yqvrMv8y5e3eXvTjdBnH-74" value="" style="rounded=0;orthogonalLoop=1;jettySize=auto;html=1;endArrow=halfCircle;endFill=0;sketch=0;sourcePerimeterSpacing=0;targetPerimeterSpacing=0;endSize=6;strokeColor=default;align=center;verticalAlign=middle;fontFamily=Helvetica;fontSize=12;fontColor=default;labelBackgroundColor=default;edgeStyle=elbowEdgeStyle;exitX=0.995;exitY=0.341;exitDx=0;exitDy=0;exitPerimeter=0;entryX=0.5;entryY=1;entryDx=0;entryDy=0;entryPerimeter=0;startArrow=box;startFill=0;" edge="1" target="yqvrMv8y5e3eXvTjdBnH-75" parent="1" source="5RMnCzaU7pHUcLIJU3OS-1">
          <mxGeometry relative="1" as="geometry">
            <mxPoint x="740" y="525" as="sourcePoint" />
            <mxPoint x="650" y="510" as="targetPoint" />
            <Array as="points">
              <mxPoint x="640" y="570" />
            </Array>
          </mxGeometry>
        </mxCell>
        <mxCell id="yqvrMv8y5e3eXvTjdBnH-78" value="Get map" style="edgeLabel;html=1;align=center;verticalAlign=middle;resizable=0;points=[];strokeColor=default;fontFamily=Helvetica;fontSize=12;fontColor=default;fillColor=default;" vertex="1" connectable="0" parent="yqvrMv8y5e3eXvTjdBnH-74">
          <mxGeometry x="0.579" y="1" relative="1" as="geometry">
            <mxPoint x="-29" as="offset" />
          </mxGeometry>
        </mxCell>
        <mxCell id="yqvrMv8y5e3eXvTjdBnH-75" value="" style="ellipse;whiteSpace=wrap;html=1;align=center;aspect=fixed;fillColor=none;strokeColor=none;resizable=0;perimeter=centerPerimeter;rotatable=0;allowArrows=0;points=[];outlineConnect=1;verticalAlign=middle;fontFamily=Helvetica;fontSize=12;fontColor=default;" vertex="1" parent="1">
          <mxGeometry x="635" y="460" width="10" height="10" as="geometry" />
        </mxCell>
        <mxCell id="yqvrMv8y5e3eXvTjdBnH-77" value="" style="endArrow=none;html=1;rounded=0;strokeColor=default;align=center;verticalAlign=middle;fontFamily=Helvetica;fontSize=12;fontColor=default;labelBackgroundColor=default;edgeStyle=elbowEdgeStyle;startArrow=box;startFill=0;exitX=1;exitY=0.25;exitDx=0;exitDy=0;" edge="1" parent="1" source="yqvrMv8y5e3eXvTjdBnH-71">
          <mxGeometry width="50" height="50" relative="1" as="geometry">
            <mxPoint x="570" y="770" as="sourcePoint" />
            <mxPoint x="520" y="670" as="targetPoint" />
          </mxGeometry>
        </mxCell>
        <mxCell id="yqvrMv8y5e3eXvTjdBnH-79" value="«Component»&lt;br&gt;Map controller" style="html=1;dropTarget=0;whiteSpace=wrap;strokeColor=default;align=center;verticalAlign=middle;fontFamily=Helvetica;fontSize=12;fontColor=default;fillColor=default;" vertex="1" parent="1">
          <mxGeometry x="750" y="210" width="115" height="50" as="geometry" />
        </mxCell>
        <mxCell id="yqvrMv8y5e3eXvTjdBnH-80" value="" style="shape=module;jettyWidth=8;jettyHeight=4;strokeColor=default;align=center;verticalAlign=middle;fontFamily=Helvetica;fontSize=12;fontColor=default;fillColor=default;" vertex="1" parent="yqvrMv8y5e3eXvTjdBnH-79">
          <mxGeometry x="1" width="20" height="20" relative="1" as="geometry">
            <mxPoint x="-27" y="7" as="offset" />
          </mxGeometry>
        </mxCell>
        <mxCell id="yqvrMv8y5e3eXvTjdBnH-81" value="" style="endArrow=box;html=1;rounded=0;strokeColor=default;align=center;verticalAlign=middle;fontFamily=Helvetica;fontSize=12;fontColor=default;labelBackgroundColor=default;edgeStyle=elbowEdgeStyle;entryX=0;entryY=0.25;entryDx=0;entryDy=0;exitX=0.114;exitY=0.998;exitDx=0;exitDy=0;exitPerimeter=0;endFill=0;" edge="1" parent="1" source="yqvrMv8y5e3eXvTjdBnH-1" target="yqvrMv8y5e3eXvTjdBnH-79">
          <mxGeometry width="50" height="50" relative="1" as="geometry">
            <mxPoint x="570" y="610" as="sourcePoint" />
            <mxPoint x="620" y="560" as="targetPoint" />
            <Array as="points">
              <mxPoint x="640" y="350" />
            </Array>
          </mxGeometry>
        </mxCell>
        <mxCell id="yqvrMv8y5e3eXvTjdBnH-82" value="" style="endArrow=none;html=1;rounded=0;strokeColor=default;align=center;verticalAlign=middle;fontFamily=Helvetica;fontSize=12;fontColor=default;labelBackgroundColor=default;edgeStyle=elbowEdgeStyle;startArrow=box;startFill=0;exitX=1;exitY=0.25;exitDx=0;exitDy=0;entryX=0.998;entryY=0.694;entryDx=0;entryDy=0;entryPerimeter=0;" edge="1" parent="1" source="yqvrMv8y5e3eXvTjdBnH-79" target="yqvrMv8y5e3eXvTjdBnH-1">
          <mxGeometry width="50" height="50" relative="1" as="geometry">
            <mxPoint x="830" y="300" as="sourcePoint" />
            <mxPoint x="880" y="250" as="targetPoint" />
            <Array as="points">
              <mxPoint x="1030" y="200" />
            </Array>
          </mxGeometry>
        </mxCell>
        <mxCell id="yqvrMv8y5e3eXvTjdBnH-83" value="" style="rounded=0;orthogonalLoop=1;jettySize=auto;html=1;endArrow=halfCircle;endFill=0;endSize=6;strokeWidth=1;sketch=0;strokeColor=default;align=center;verticalAlign=middle;fontFamily=Helvetica;fontSize=12;fontColor=default;labelBackgroundColor=default;edgeStyle=elbowEdgeStyle;exitX=0.997;exitY=0.69;exitDx=0;exitDy=0;exitPerimeter=0;startArrow=box;startFill=0;" edge="1" target="yqvrMv8y5e3eXvTjdBnH-85" parent="1" source="yqvrMv8y5e3eXvTjdBnH-1">
          <mxGeometry relative="1" as="geometry">
            <mxPoint x="1180" y="465" as="sourcePoint" />
          </mxGeometry>
        </mxCell>
        <mxCell id="yqvrMv8y5e3eXvTjdBnH-86" value="Get rooms" style="edgeLabel;html=1;align=center;verticalAlign=middle;resizable=0;points=[];strokeColor=default;fontFamily=Helvetica;fontSize=12;fontColor=default;fillColor=default;" vertex="1" connectable="0" parent="yqvrMv8y5e3eXvTjdBnH-83">
          <mxGeometry x="-0.3624" y="1" relative="1" as="geometry">
            <mxPoint x="36" y="8" as="offset" />
          </mxGeometry>
        </mxCell>
        <mxCell id="yqvrMv8y5e3eXvTjdBnH-84" value="" style="rounded=0;orthogonalLoop=1;jettySize=auto;html=1;endArrow=oval;endFill=0;sketch=0;sourcePerimeterSpacing=0;targetPerimeterSpacing=0;endSize=10;strokeColor=default;align=center;verticalAlign=middle;fontFamily=Helvetica;fontSize=12;fontColor=default;labelBackgroundColor=default;edgeStyle=elbowEdgeStyle;exitX=0.726;exitY=0.004;exitDx=0;exitDy=0;exitPerimeter=0;startArrow=box;startFill=0;" edge="1" target="yqvrMv8y5e3eXvTjdBnH-85" parent="1" source="5RMnCzaU7pHUcLIJU3OS-3">
          <mxGeometry relative="1" as="geometry">
            <mxPoint x="1140" y="465" as="sourcePoint" />
            <Array as="points">
              <mxPoint x="1490" y="490" />
            </Array>
          </mxGeometry>
        </mxCell>
        <mxCell id="yqvrMv8y5e3eXvTjdBnH-85" value="" style="ellipse;whiteSpace=wrap;html=1;align=center;aspect=fixed;fillColor=none;strokeColor=none;resizable=0;perimeter=centerPerimeter;rotatable=0;allowArrows=0;points=[];outlineConnect=1;verticalAlign=middle;fontFamily=Helvetica;fontSize=12;fontColor=default;" vertex="1" parent="1">
          <mxGeometry x="1155" y="460" width="10" height="10" as="geometry" />
        </mxCell>
        <mxCell id="yqvrMv8y5e3eXvTjdBnH-87" value="" style="endArrow=none;html=1;rounded=0;strokeColor=default;align=center;verticalAlign=middle;fontFamily=Helvetica;fontSize=12;fontColor=default;labelBackgroundColor=default;edgeStyle=elbowEdgeStyle;exitX=0.556;exitY=0.043;exitDx=0;exitDy=0;exitPerimeter=0;startArrow=box;startFill=0;" edge="1" parent="1" source="yqvrMv8y5e3eXvTjdBnH-35">
          <mxGeometry width="50" height="50" relative="1" as="geometry">
            <mxPoint x="1030" y="550" as="sourcePoint" />
            <mxPoint x="1490" y="550" as="targetPoint" />
          </mxGeometry>
        </mxCell>
        <mxCell id="yqvrMv8y5e3eXvTjdBnH-88" value="«Component»&lt;br&gt;OpenStreetMaps" style="html=1;dropTarget=0;whiteSpace=wrap;strokeColor=default;align=center;verticalAlign=middle;fontFamily=Helvetica;fontSize=12;fontColor=default;fillColor=default;" vertex="1" parent="1">
          <mxGeometry x="1190" y="720" width="130" height="60" as="geometry" />
        </mxCell>
        <mxCell id="yqvrMv8y5e3eXvTjdBnH-89" value="" style="shape=module;jettyWidth=8;jettyHeight=4;strokeColor=default;align=center;verticalAlign=middle;fontFamily=Helvetica;fontSize=12;fontColor=default;fillColor=default;" vertex="1" parent="yqvrMv8y5e3eXvTjdBnH-88">
          <mxGeometry x="1" width="20" height="20" relative="1" as="geometry">
            <mxPoint x="-27" y="7" as="offset" />
          </mxGeometry>
        </mxCell>
        <mxCell id="yqvrMv8y5e3eXvTjdBnH-90" value="" style="rounded=0;orthogonalLoop=1;jettySize=auto;html=1;endArrow=halfCircle;endFill=0;endSize=6;strokeWidth=1;sketch=0;strokeColor=default;align=center;verticalAlign=middle;fontFamily=Helvetica;fontSize=12;fontColor=default;labelBackgroundColor=default;edgeStyle=elbowEdgeStyle;startArrow=box;startFill=0;" edge="1" parent="1">
          <mxGeometry relative="1" as="geometry">
            <mxPoint x="1020" y="390" as="sourcePoint" />
            <mxPoint x="1090" y="760" as="targetPoint" />
            <Array as="points">
              <mxPoint x="1020" y="580" />
            </Array>
          </mxGeometry>
        </mxCell>
        <mxCell id="yqvrMv8y5e3eXvTjdBnH-93" value="Get map" style="edgeLabel;html=1;align=center;verticalAlign=middle;resizable=0;points=[];strokeColor=default;fontFamily=Helvetica;fontSize=12;fontColor=default;fillColor=default;" vertex="1" connectable="0" parent="yqvrMv8y5e3eXvTjdBnH-90">
          <mxGeometry x="-0.8549" y="-1" relative="1" as="geometry">
            <mxPoint x="36" as="offset" />
          </mxGeometry>
        </mxCell>
        <mxCell id="yqvrMv8y5e3eXvTjdBnH-91" value="" style="rounded=0;orthogonalLoop=1;jettySize=auto;html=1;endArrow=oval;endFill=0;sketch=0;sourcePerimeterSpacing=0;targetPerimeterSpacing=0;endSize=10;strokeColor=default;align=center;verticalAlign=middle;fontFamily=Helvetica;fontSize=12;fontColor=default;labelBackgroundColor=default;edgeStyle=elbowEdgeStyle;exitX=0.002;exitY=0.599;exitDx=0;exitDy=0;exitPerimeter=0;startArrow=box;startFill=0;" edge="1" parent="1" source="5RMnCzaU7pHUcLIJU3OS-3">
          <mxGeometry relative="1" as="geometry">
            <mxPoint x="910" y="630" as="sourcePoint" />
            <mxPoint x="1090" y="760" as="targetPoint" />
          </mxGeometry>
        </mxCell>
        <mxCell id="yqvrMv8y5e3eXvTjdBnH-92" value="" style="ellipse;whiteSpace=wrap;html=1;align=center;aspect=fixed;fillColor=none;strokeColor=none;resizable=0;perimeter=centerPerimeter;rotatable=0;allowArrows=0;points=[];outlineConnect=1;verticalAlign=middle;fontFamily=Helvetica;fontSize=12;fontColor=default;" vertex="1" parent="1">
          <mxGeometry x="815" y="580" width="10" height="10" as="geometry" />
        </mxCell>
        <mxCell id="yqvrMv8y5e3eXvTjdBnH-94" value="" style="endArrow=box;html=1;rounded=0;strokeColor=default;align=center;verticalAlign=middle;fontFamily=Helvetica;fontSize=12;fontColor=default;labelBackgroundColor=default;edgeStyle=elbowEdgeStyle;endFill=0;exitX=0.905;exitY=1.006;exitDx=0;exitDy=0;exitPerimeter=0;entryX=1;entryY=0.75;entryDx=0;entryDy=0;" edge="1" parent="1" source="yqvrMv8y5e3eXvTjdBnH-1" target="yqvrMv8y5e3eXvTjdBnH-79">
          <mxGeometry width="50" height="50" relative="1" as="geometry">
            <mxPoint x="680" y="400" as="sourcePoint" />
            <mxPoint x="740" y="410" as="targetPoint" />
            <Array as="points">
              <mxPoint x="1020" y="320" />
            </Array>
          </mxGeometry>
        </mxCell>
        <mxCell id="yqvrMv8y5e3eXvTjdBnH-95" value="" style="endArrow=none;html=1;rounded=0;strokeColor=default;align=center;verticalAlign=middle;fontFamily=Helvetica;fontSize=12;fontColor=default;labelBackgroundColor=default;edgeStyle=elbowEdgeStyle;startArrow=box;startFill=0;exitX=0.015;exitY=0.642;exitDx=0;exitDy=0;exitPerimeter=0;" edge="1" parent="1" source="yqvrMv8y5e3eXvTjdBnH-88">
          <mxGeometry width="50" height="50" relative="1" as="geometry">
            <mxPoint x="890" y="640" as="sourcePoint" />
            <mxPoint x="1150" y="759" as="targetPoint" />
          </mxGeometry>
        </mxCell>
        <mxCell id="yqvrMv8y5e3eXvTjdBnH-96" value="«Component»&lt;div&gt;Chat view&lt;/div&gt;" style="html=1;dropTarget=0;whiteSpace=wrap;strokeColor=default;align=center;verticalAlign=middle;fontFamily=Helvetica;fontSize=12;fontColor=default;fillColor=default;" vertex="1" parent="1">
          <mxGeometry x="365" y="770" width="120" height="60" as="geometry" />
        </mxCell>
        <mxCell id="yqvrMv8y5e3eXvTjdBnH-97" value="" style="shape=module;jettyWidth=8;jettyHeight=4;strokeColor=default;align=center;verticalAlign=middle;fontFamily=Helvetica;fontSize=12;fontColor=default;fillColor=default;" vertex="1" parent="yqvrMv8y5e3eXvTjdBnH-96">
          <mxGeometry x="1" width="20" height="20" relative="1" as="geometry">
            <mxPoint x="-27" y="7" as="offset" />
          </mxGeometry>
        </mxCell>
        <mxCell id="yqvrMv8y5e3eXvTjdBnH-98" value="«Component»&lt;br&gt;Chat controller" style="html=1;dropTarget=0;whiteSpace=wrap;strokeColor=default;align=center;verticalAlign=middle;fontFamily=Helvetica;fontSize=12;fontColor=default;fillColor=default;" vertex="1" parent="1">
          <mxGeometry x="757.5" y="300" width="125" height="60" as="geometry" />
        </mxCell>
        <mxCell id="yqvrMv8y5e3eXvTjdBnH-99" value="" style="shape=module;jettyWidth=8;jettyHeight=4;strokeColor=default;align=center;verticalAlign=middle;fontFamily=Helvetica;fontSize=12;fontColor=default;fillColor=default;" vertex="1" parent="yqvrMv8y5e3eXvTjdBnH-98">
          <mxGeometry x="1" width="20" height="20" relative="1" as="geometry">
            <mxPoint x="-27" y="7" as="offset" />
          </mxGeometry>
        </mxCell>
        <mxCell id="yqvrMv8y5e3eXvTjdBnH-100" value="" style="rounded=0;orthogonalLoop=1;jettySize=auto;html=1;endArrow=halfCircle;endFill=0;endSize=6;strokeWidth=1;sketch=0;strokeColor=default;align=center;verticalAlign=middle;fontFamily=Helvetica;fontSize=12;fontColor=default;labelBackgroundColor=default;edgeStyle=elbowEdgeStyle;exitX=1;exitY=0.657;exitDx=0;exitDy=0;exitPerimeter=0;startArrow=box;startFill=0;" edge="1" parent="1" source="5RMnCzaU7pHUcLIJU3OS-1">
          <mxGeometry relative="1" as="geometry">
            <mxPoint x="840" y="575" as="sourcePoint" />
            <mxPoint x="730" y="530" as="targetPoint" />
            <Array as="points">
              <mxPoint x="730" y="680" />
            </Array>
          </mxGeometry>
        </mxCell>
        <mxCell id="yqvrMv8y5e3eXvTjdBnH-103" value="Get message" style="edgeLabel;html=1;align=center;verticalAlign=middle;resizable=0;points=[];strokeColor=default;fontFamily=Helvetica;fontSize=12;fontColor=default;fillColor=default;" vertex="1" connectable="0" parent="yqvrMv8y5e3eXvTjdBnH-100">
          <mxGeometry x="0.7534" y="-1" relative="1" as="geometry">
            <mxPoint x="-51" y="163" as="offset" />
          </mxGeometry>
        </mxCell>
        <mxCell id="yqvrMv8y5e3eXvTjdBnH-101" value="" style="rounded=0;orthogonalLoop=1;jettySize=auto;html=1;endArrow=oval;endFill=0;sketch=0;sourcePerimeterSpacing=0;targetPerimeterSpacing=0;endSize=10;strokeColor=default;align=center;verticalAlign=middle;fontFamily=Helvetica;fontSize=12;fontColor=default;labelBackgroundColor=default;edgeStyle=elbowEdgeStyle;exitX=0.29;exitY=1.004;exitDx=0;exitDy=0;exitPerimeter=0;startArrow=box;startFill=0;" edge="1" parent="1" source="yqvrMv8y5e3eXvTjdBnH-1">
          <mxGeometry relative="1" as="geometry">
            <mxPoint x="800" y="575" as="sourcePoint" />
            <mxPoint x="730" y="530" as="targetPoint" />
            <Array as="points">
              <mxPoint x="730" y="490" />
            </Array>
          </mxGeometry>
        </mxCell>
        <mxCell id="yqvrMv8y5e3eXvTjdBnH-102" value="" style="ellipse;whiteSpace=wrap;html=1;align=center;aspect=fixed;fillColor=none;strokeColor=none;resizable=0;perimeter=centerPerimeter;rotatable=0;allowArrows=0;points=[];outlineConnect=1;verticalAlign=middle;fontFamily=Helvetica;fontSize=12;fontColor=default;" vertex="1" parent="1">
          <mxGeometry x="815" y="570" width="10" height="10" as="geometry" />
        </mxCell>
        <mxCell id="yqvrMv8y5e3eXvTjdBnH-104" value="" style="rounded=0;orthogonalLoop=1;jettySize=auto;html=1;endArrow=halfCircle;endFill=0;endSize=6;strokeWidth=1;sketch=0;strokeColor=default;align=center;verticalAlign=middle;fontFamily=Helvetica;fontSize=12;fontColor=default;labelBackgroundColor=default;edgeStyle=elbowEdgeStyle;exitX=0.999;exitY=0.738;exitDx=0;exitDy=0;exitPerimeter=0;startArrow=box;startFill=0;" edge="1" parent="1" source="5RMnCzaU7pHUcLIJU3OS-1">
          <mxGeometry relative="1" as="geometry">
            <mxPoint x="850" y="545" as="sourcePoint" />
            <mxPoint x="770" y="500" as="targetPoint" />
            <Array as="points">
              <mxPoint x="770" y="660" />
            </Array>
          </mxGeometry>
        </mxCell>
        <mxCell id="yqvrMv8y5e3eXvTjdBnH-107" value="Send message" style="edgeLabel;html=1;align=center;verticalAlign=middle;resizable=0;points=[];strokeColor=default;fontFamily=Helvetica;fontSize=12;fontColor=default;fillColor=default;" vertex="1" connectable="0" parent="yqvrMv8y5e3eXvTjdBnH-104">
          <mxGeometry x="0.2343" y="2" relative="1" as="geometry">
            <mxPoint x="47" y="-4" as="offset" />
          </mxGeometry>
        </mxCell>
        <mxCell id="yqvrMv8y5e3eXvTjdBnH-105" value="" style="rounded=0;orthogonalLoop=1;jettySize=auto;html=1;endArrow=oval;endFill=0;sketch=0;sourcePerimeterSpacing=0;targetPerimeterSpacing=0;endSize=10;strokeColor=default;align=center;verticalAlign=middle;fontFamily=Helvetica;fontSize=12;fontColor=default;labelBackgroundColor=default;edgeStyle=elbowEdgeStyle;exitX=0.371;exitY=0.996;exitDx=0;exitDy=0;exitPerimeter=0;startArrow=box;startFill=0;" edge="1" parent="1" source="yqvrMv8y5e3eXvTjdBnH-1">
          <mxGeometry relative="1" as="geometry">
            <mxPoint x="810" y="545" as="sourcePoint" />
            <mxPoint x="770" y="500" as="targetPoint" />
            <Array as="points">
              <mxPoint x="770" y="450" />
            </Array>
          </mxGeometry>
        </mxCell>
        <mxCell id="yqvrMv8y5e3eXvTjdBnH-106" value="" style="ellipse;whiteSpace=wrap;html=1;align=center;aspect=fixed;fillColor=none;strokeColor=none;resizable=0;perimeter=centerPerimeter;rotatable=0;allowArrows=0;points=[];outlineConnect=1;verticalAlign=middle;fontFamily=Helvetica;fontSize=12;fontColor=default;" vertex="1" parent="1">
          <mxGeometry x="825" y="540" width="10" height="10" as="geometry" />
        </mxCell>
        <mxCell id="yqvrMv8y5e3eXvTjdBnH-108" value="" style="endArrow=none;html=1;rounded=0;strokeColor=default;align=center;verticalAlign=middle;fontFamily=Helvetica;fontSize=12;fontColor=default;labelBackgroundColor=default;edgeStyle=elbowEdgeStyle;exitX=1.003;exitY=0.186;exitDx=0;exitDy=0;exitPerimeter=0;startArrow=box;startFill=0;" edge="1" parent="1" source="yqvrMv8y5e3eXvTjdBnH-96">
          <mxGeometry width="50" height="50" relative="1" as="geometry">
            <mxPoint x="740" y="650" as="sourcePoint" />
            <mxPoint x="520" y="780" as="targetPoint" />
          </mxGeometry>
        </mxCell>
        <mxCell id="yqvrMv8y5e3eXvTjdBnH-109" value="" style="endArrow=none;html=1;rounded=0;strokeColor=default;align=center;verticalAlign=middle;fontFamily=Helvetica;fontSize=12;fontColor=default;labelBackgroundColor=default;edgeStyle=elbowEdgeStyle;exitX=1.003;exitY=0.661;exitDx=0;exitDy=0;exitPerimeter=0;startArrow=box;startFill=0;" edge="1" parent="1" source="yqvrMv8y5e3eXvTjdBnH-96">
          <mxGeometry width="50" height="50" relative="1" as="geometry">
            <mxPoint x="590" y="900" as="sourcePoint" />
            <mxPoint x="520" y="810" as="targetPoint" />
          </mxGeometry>
        </mxCell>
        <mxCell id="yqvrMv8y5e3eXvTjdBnH-110" value="" style="endArrow=box;html=1;rounded=0;strokeColor=default;align=center;verticalAlign=middle;fontFamily=Helvetica;fontSize=12;fontColor=default;labelBackgroundColor=default;edgeStyle=elbowEdgeStyle;entryX=0;entryY=0.25;entryDx=0;entryDy=0;endFill=0;" edge="1" parent="1" target="yqvrMv8y5e3eXvTjdBnH-98">
          <mxGeometry width="50" height="50" relative="1" as="geometry">
            <mxPoint x="730" y="390" as="sourcePoint" />
            <mxPoint x="720" y="310" as="targetPoint" />
            <Array as="points">
              <mxPoint x="730" y="350" />
            </Array>
          </mxGeometry>
        </mxCell>
        <mxCell id="yqvrMv8y5e3eXvTjdBnH-111" value="" style="endArrow=box;html=1;rounded=0;strokeColor=default;align=center;verticalAlign=middle;fontFamily=Helvetica;fontSize=12;fontColor=default;labelBackgroundColor=default;edgeStyle=elbowEdgeStyle;entryX=0.077;entryY=1.038;entryDx=0;entryDy=0;entryPerimeter=0;endFill=0;" edge="1" parent="1" target="yqvrMv8y5e3eXvTjdBnH-98">
          <mxGeometry width="50" height="50" relative="1" as="geometry">
            <mxPoint x="770" y="390" as="sourcePoint" />
            <mxPoint x="870" y="430" as="targetPoint" />
          </mxGeometry>
        </mxCell>
        <mxCell id="yqvrMv8y5e3eXvTjdBnH-119" value="" style="rounded=0;orthogonalLoop=1;jettySize=auto;html=1;endArrow=halfCircle;endFill=0;endSize=6;strokeWidth=1;sketch=0;strokeColor=default;align=center;verticalAlign=middle;fontFamily=Helvetica;fontSize=12;fontColor=default;labelBackgroundColor=default;edgeStyle=elbowEdgeStyle;startArrow=box;startFill=0;" edge="1" parent="1">
          <mxGeometry relative="1" as="geometry">
            <mxPoint x="870" y="390" as="sourcePoint" />
            <mxPoint x="870" y="480" as="targetPoint" />
            <Array as="points">
              <mxPoint x="870" y="430" />
            </Array>
          </mxGeometry>
        </mxCell>
        <mxCell id="yqvrMv8y5e3eXvTjdBnH-120" value="" style="rounded=0;orthogonalLoop=1;jettySize=auto;html=1;endArrow=oval;endFill=0;sketch=0;sourcePerimeterSpacing=0;targetPerimeterSpacing=0;endSize=10;strokeColor=default;align=center;verticalAlign=middle;fontFamily=Helvetica;fontSize=12;fontColor=default;labelBackgroundColor=default;edgeStyle=elbowEdgeStyle;exitX=0;exitY=0.829;exitDx=0;exitDy=0;exitPerimeter=0;startArrow=box;startFill=0;" edge="1" parent="1" source="5RMnCzaU7pHUcLIJU3OS-3">
          <mxGeometry relative="1" as="geometry">
            <mxPoint x="870" y="465" as="sourcePoint" />
            <mxPoint x="870" y="480" as="targetPoint" />
            <Array as="points">
              <mxPoint x="870" y="660" />
            </Array>
          </mxGeometry>
        </mxCell>
        <mxCell id="yqvrMv8y5e3eXvTjdBnH-122" value="Get message" style="edgeLabel;html=1;align=center;verticalAlign=middle;resizable=0;points=[];strokeColor=default;fontFamily=Helvetica;fontSize=12;fontColor=default;fillColor=default;" vertex="1" connectable="0" parent="yqvrMv8y5e3eXvTjdBnH-120">
          <mxGeometry x="0.526" y="-1" relative="1" as="geometry">
            <mxPoint x="-36" y="-77" as="offset" />
          </mxGeometry>
        </mxCell>
        <mxCell id="yqvrMv8y5e3eXvTjdBnH-121" value="" style="ellipse;whiteSpace=wrap;html=1;align=center;aspect=fixed;fillColor=none;strokeColor=none;resizable=0;perimeter=centerPerimeter;rotatable=0;allowArrows=0;points=[];outlineConnect=1;verticalAlign=middle;fontFamily=Helvetica;fontSize=12;fontColor=default;" vertex="1" parent="1">
          <mxGeometry x="885" y="460" width="10" height="10" as="geometry" />
        </mxCell>
        <mxCell id="yqvrMv8y5e3eXvTjdBnH-123" value="" style="rounded=0;orthogonalLoop=1;jettySize=auto;html=1;endArrow=halfCircle;endFill=0;endSize=6;strokeWidth=1;sketch=0;strokeColor=default;align=center;verticalAlign=middle;fontFamily=Helvetica;fontSize=12;fontColor=default;labelBackgroundColor=default;edgeStyle=elbowEdgeStyle;exitX=0.672;exitY=0.996;exitDx=0;exitDy=0;exitPerimeter=0;startArrow=box;startFill=0;" edge="1" parent="1" source="yqvrMv8y5e3eXvTjdBnH-1">
          <mxGeometry relative="1" as="geometry">
            <mxPoint x="980" y="485" as="sourcePoint" />
            <mxPoint x="890" y="490" as="targetPoint" />
            <Array as="points">
              <mxPoint x="910" y="400" />
            </Array>
          </mxGeometry>
        </mxCell>
        <mxCell id="yqvrMv8y5e3eXvTjdBnH-124" value="" style="rounded=0;orthogonalLoop=1;jettySize=auto;html=1;endArrow=oval;endFill=0;sketch=0;sourcePerimeterSpacing=0;targetPerimeterSpacing=0;endSize=10;strokeColor=default;align=center;verticalAlign=middle;fontFamily=Helvetica;fontSize=12;fontColor=default;labelBackgroundColor=default;edgeStyle=elbowEdgeStyle;exitX=0.007;exitY=0.768;exitDx=0;exitDy=0;exitPerimeter=0;startArrow=box;startFill=0;" edge="1" parent="1" source="5RMnCzaU7pHUcLIJU3OS-3">
          <mxGeometry relative="1" as="geometry">
            <mxPoint x="940" y="485" as="sourcePoint" />
            <mxPoint x="890" y="490" as="targetPoint" />
            <Array as="points">
              <mxPoint x="890" y="650" />
            </Array>
          </mxGeometry>
        </mxCell>
        <mxCell id="yqvrMv8y5e3eXvTjdBnH-126" value="Create message" style="edgeLabel;html=1;align=center;verticalAlign=middle;resizable=0;points=[];strokeColor=default;fontFamily=Helvetica;fontSize=12;fontColor=default;fillColor=default;" vertex="1" connectable="0" parent="yqvrMv8y5e3eXvTjdBnH-124">
          <mxGeometry x="0.9127" y="1" relative="1" as="geometry">
            <mxPoint x="51" y="15" as="offset" />
          </mxGeometry>
        </mxCell>
        <mxCell id="yqvrMv8y5e3eXvTjdBnH-125" value="" style="ellipse;whiteSpace=wrap;html=1;align=center;aspect=fixed;fillColor=none;strokeColor=none;resizable=0;perimeter=centerPerimeter;rotatable=0;allowArrows=0;points=[];outlineConnect=1;verticalAlign=middle;fontFamily=Helvetica;fontSize=12;fontColor=default;" vertex="1" parent="1">
          <mxGeometry x="955" y="480" width="10" height="10" as="geometry" />
        </mxCell>
        <mxCell id="yqvrMv8y5e3eXvTjdBnH-127" value="" style="endArrow=box;html=1;rounded=0;strokeColor=default;align=center;verticalAlign=middle;fontFamily=Helvetica;fontSize=12;fontColor=default;labelBackgroundColor=default;edgeStyle=elbowEdgeStyle;endFill=0;exitX=0.591;exitY=1.01;exitDx=0;exitDy=0;exitPerimeter=0;entryX=0.889;entryY=1.013;entryDx=0;entryDy=0;entryPerimeter=0;" edge="1" parent="1" source="yqvrMv8y5e3eXvTjdBnH-1" target="yqvrMv8y5e3eXvTjdBnH-98">
          <mxGeometry width="50" height="50" relative="1" as="geometry">
            <mxPoint x="940" y="360" as="sourcePoint" />
            <mxPoint x="990" y="310" as="targetPoint" />
          </mxGeometry>
        </mxCell>
        <mxCell id="yqvrMv8y5e3eXvTjdBnH-128" value="" style="endArrow=box;html=1;rounded=0;strokeColor=default;align=center;verticalAlign=middle;fontFamily=Helvetica;fontSize=12;fontColor=default;labelBackgroundColor=default;edgeStyle=elbowEdgeStyle;entryX=0.993;entryY=0.383;entryDx=0;entryDy=0;entryPerimeter=0;endFill=0;" edge="1" parent="1" target="yqvrMv8y5e3eXvTjdBnH-98">
          <mxGeometry width="50" height="50" relative="1" as="geometry">
            <mxPoint x="910" y="390" as="sourcePoint" />
            <mxPoint x="970" y="300" as="targetPoint" />
            <Array as="points">
              <mxPoint x="910" y="360" />
            </Array>
          </mxGeometry>
        </mxCell>
        <mxCell id="yqvrMv8y5e3eXvTjdBnH-129" value="«Component»&lt;br&gt;Firebase Realtime Database" style="html=1;dropTarget=0;whiteSpace=wrap;strokeColor=default;align=center;verticalAlign=middle;fontFamily=Helvetica;fontSize=12;fontColor=default;fillColor=default;" vertex="1" parent="1">
          <mxGeometry x="1185" y="800" width="140" height="70" as="geometry" />
        </mxCell>
        <mxCell id="yqvrMv8y5e3eXvTjdBnH-130" value="" style="shape=module;jettyWidth=8;jettyHeight=4;strokeColor=default;align=center;verticalAlign=middle;fontFamily=Helvetica;fontSize=12;fontColor=default;fillColor=default;" vertex="1" parent="yqvrMv8y5e3eXvTjdBnH-129">
          <mxGeometry x="1" width="20" height="20" relative="1" as="geometry">
            <mxPoint x="-27" y="7" as="offset" />
          </mxGeometry>
        </mxCell>
        <mxCell id="yqvrMv8y5e3eXvTjdBnH-131" value="" style="endArrow=box;html=1;rounded=0;strokeColor=default;align=center;verticalAlign=middle;fontFamily=Helvetica;fontSize=12;fontColor=default;labelBackgroundColor=default;edgeStyle=elbowEdgeStyle;endFill=0;entryX=0;entryY=0.25;entryDx=0;entryDy=0;exitX=-0.001;exitY=0.77;exitDx=0;exitDy=0;exitPerimeter=0;" edge="1" parent="1" source="5RMnCzaU7pHUcLIJU3OS-3" target="yqvrMv8y5e3eXvTjdBnH-129">
          <mxGeometry width="50" height="50" relative="1" as="geometry">
            <mxPoint x="940" y="800" as="sourcePoint" />
            <mxPoint x="990" y="750" as="targetPoint" />
          </mxGeometry>
        </mxCell>
        <mxCell id="yqvrMv8y5e3eXvTjdBnH-132" value="" style="endArrow=box;html=1;rounded=0;strokeColor=default;align=center;verticalAlign=middle;fontFamily=Helvetica;fontSize=12;fontColor=default;labelBackgroundColor=default;edgeStyle=elbowEdgeStyle;endFill=0;entryX=0.01;entryY=0.598;entryDx=0;entryDy=0;entryPerimeter=0;" edge="1" parent="1" target="yqvrMv8y5e3eXvTjdBnH-129">
          <mxGeometry width="50" height="50" relative="1" as="geometry">
            <mxPoint x="1150" y="842" as="sourcePoint" />
            <mxPoint x="1020" y="760" as="targetPoint" />
          </mxGeometry>
        </mxCell>
        <mxCell id="yqvrMv8y5e3eXvTjdBnH-133" value="«Component»&lt;br&gt;Room manage view" style="html=1;dropTarget=0;whiteSpace=wrap;strokeColor=default;align=center;verticalAlign=middle;fontFamily=Helvetica;fontSize=12;fontColor=default;fillColor=default;" vertex="1" parent="1">
          <mxGeometry x="100" y="810" width="160" height="70" as="geometry" />
        </mxCell>
        <mxCell id="yqvrMv8y5e3eXvTjdBnH-134" value="" style="shape=module;jettyWidth=8;jettyHeight=4;strokeColor=default;align=center;verticalAlign=middle;fontFamily=Helvetica;fontSize=12;fontColor=default;fillColor=default;" vertex="1" parent="yqvrMv8y5e3eXvTjdBnH-133">
          <mxGeometry x="1" width="20" height="20" relative="1" as="geometry">
            <mxPoint x="-27" y="7" as="offset" />
          </mxGeometry>
        </mxCell>
        <mxCell id="yqvrMv8y5e3eXvTjdBnH-135" value="&lt;div&gt;«Component»&lt;/div&gt;&lt;div&gt;Controller&lt;/div&gt;" style="html=1;dropTarget=0;whiteSpace=wrap;verticalAlign=top;" vertex="1" parent="1">
          <mxGeometry x="605" y="850" width="430" height="280" as="geometry" />
        </mxCell>
        <mxCell id="yqvrMv8y5e3eXvTjdBnH-136" value="" style="shape=module;jettyWidth=8;jettyHeight=4;" vertex="1" parent="yqvrMv8y5e3eXvTjdBnH-135">
          <mxGeometry x="1" width="20" height="20" relative="1" as="geometry">
            <mxPoint x="-27" y="7" as="offset" />
          </mxGeometry>
        </mxCell>
        <mxCell id="yqvrMv8y5e3eXvTjdBnH-139" value="" style="ellipse;whiteSpace=wrap;html=1;align=center;aspect=fixed;fillColor=none;strokeColor=none;resizable=0;perimeter=centerPerimeter;rotatable=0;allowArrows=0;points=[];outlineConnect=1;verticalAlign=middle;fontFamily=Helvetica;fontSize=12;fontColor=default;" vertex="1" parent="1">
          <mxGeometry x="340" y="970" width="10" height="10" as="geometry" />
        </mxCell>
        <mxCell id="yqvrMv8y5e3eXvTjdBnH-140" value="" style="rounded=0;orthogonalLoop=1;jettySize=auto;html=1;endArrow=halfCircle;endFill=0;endSize=6;strokeWidth=1;sketch=0;strokeColor=default;align=center;verticalAlign=middle;fontFamily=Helvetica;fontSize=12;fontColor=default;labelBackgroundColor=default;edgeStyle=elbowEdgeStyle;exitX=0.317;exitY=1.001;exitDx=0;exitDy=0;exitPerimeter=0;startArrow=box;startFill=0;" edge="1" target="yqvrMv8y5e3eXvTjdBnH-142" parent="1" source="5RMnCzaU7pHUcLIJU3OS-1">
          <mxGeometry relative="1" as="geometry">
            <mxPoint x="350" y="1025" as="sourcePoint" />
            <Array as="points">
              <mxPoint x="186" y="960" />
            </Array>
          </mxGeometry>
        </mxCell>
        <mxCell id="yqvrMv8y5e3eXvTjdBnH-145" value="Manage room" style="edgeLabel;html=1;align=center;verticalAlign=middle;resizable=0;points=[];strokeColor=default;fontFamily=Helvetica;fontSize=12;fontColor=default;fillColor=default;" vertex="1" connectable="0" parent="yqvrMv8y5e3eXvTjdBnH-140">
          <mxGeometry x="0.2442" y="2" relative="1" as="geometry">
            <mxPoint x="7" y="-13" as="offset" />
          </mxGeometry>
        </mxCell>
        <mxCell id="yqvrMv8y5e3eXvTjdBnH-141" value="" style="rounded=0;orthogonalLoop=1;jettySize=auto;html=1;endArrow=oval;endFill=0;sketch=0;sourcePerimeterSpacing=0;targetPerimeterSpacing=0;endSize=10;strokeColor=default;align=center;verticalAlign=middle;fontFamily=Helvetica;fontSize=12;fontColor=default;labelBackgroundColor=default;edgeStyle=elbowEdgeStyle;exitX=0.006;exitY=0.624;exitDx=0;exitDy=0;exitPerimeter=0;startArrow=box;startFill=0;" edge="1" target="yqvrMv8y5e3eXvTjdBnH-142" parent="1" source="yqvrMv8y5e3eXvTjdBnH-135">
          <mxGeometry relative="1" as="geometry">
            <mxPoint x="310" y="1025" as="sourcePoint" />
          </mxGeometry>
        </mxCell>
        <mxCell id="yqvrMv8y5e3eXvTjdBnH-142" value="" style="ellipse;whiteSpace=wrap;html=1;align=center;aspect=fixed;fillColor=none;strokeColor=none;resizable=0;perimeter=centerPerimeter;rotatable=0;allowArrows=0;points=[];outlineConnect=1;verticalAlign=middle;fontFamily=Helvetica;fontSize=12;fontColor=default;" vertex="1" parent="1">
          <mxGeometry x="325" y="1020" width="10" height="10" as="geometry" />
        </mxCell>
        <mxCell id="yqvrMv8y5e3eXvTjdBnH-143" value="" style="endArrow=box;html=1;rounded=0;strokeColor=default;align=center;verticalAlign=middle;fontFamily=Helvetica;fontSize=12;fontColor=default;labelBackgroundColor=default;edgeStyle=elbowEdgeStyle;endFill=0;entryX=0.554;entryY=1.003;entryDx=0;entryDy=0;entryPerimeter=0;exitX=0.314;exitY=1.001;exitDx=0;exitDy=0;exitPerimeter=0;" edge="1" parent="1" source="5RMnCzaU7pHUcLIJU3OS-1" target="yqvrMv8y5e3eXvTjdBnH-133">
          <mxGeometry width="50" height="50" relative="1" as="geometry">
            <mxPoint x="120" y="960" as="sourcePoint" />
            <mxPoint x="170" y="910" as="targetPoint" />
          </mxGeometry>
        </mxCell>
        <mxCell id="yqvrMv8y5e3eXvTjdBnH-146" value="«Component»&lt;br&gt;Room manage controller" style="html=1;dropTarget=0;whiteSpace=wrap;strokeColor=default;align=center;verticalAlign=middle;fontFamily=Helvetica;fontSize=12;fontColor=default;fillColor=default;" vertex="1" parent="1">
          <mxGeometry x="670" y="995" width="135" height="60" as="geometry" />
        </mxCell>
        <mxCell id="yqvrMv8y5e3eXvTjdBnH-147" value="" style="shape=module;jettyWidth=8;jettyHeight=4;strokeColor=default;align=center;verticalAlign=middle;fontFamily=Helvetica;fontSize=12;fontColor=default;fillColor=default;" vertex="1" parent="yqvrMv8y5e3eXvTjdBnH-146">
          <mxGeometry x="1" width="20" height="20" relative="1" as="geometry">
            <mxPoint x="-27" y="7" as="offset" />
          </mxGeometry>
        </mxCell>
        <mxCell id="yqvrMv8y5e3eXvTjdBnH-148" value="" style="endArrow=box;html=1;rounded=0;strokeColor=default;align=center;verticalAlign=middle;fontFamily=Helvetica;fontSize=12;fontColor=default;labelBackgroundColor=default;edgeStyle=elbowEdgeStyle;endFill=0;entryX=0.026;entryY=0.51;entryDx=0;entryDy=0;entryPerimeter=0;" edge="1" parent="1" target="yqvrMv8y5e3eXvTjdBnH-146">
          <mxGeometry width="50" height="50" relative="1" as="geometry">
            <mxPoint x="610" y="1026" as="sourcePoint" />
            <mxPoint x="550" y="940" as="targetPoint" />
          </mxGeometry>
        </mxCell>
        <mxCell id="yqvrMv8y5e3eXvTjdBnH-149" value="" style="rounded=0;orthogonalLoop=1;jettySize=auto;html=1;endArrow=halfCircle;endFill=0;endSize=6;strokeWidth=1;sketch=0;strokeColor=default;align=center;verticalAlign=middle;fontFamily=Helvetica;fontSize=12;fontColor=default;labelBackgroundColor=default;edgeStyle=elbowEdgeStyle;exitX=0.999;exitY=0.607;exitDx=0;exitDy=0;exitPerimeter=0;startArrow=box;startFill=0;" edge="1" parent="1" source="yqvrMv8y5e3eXvTjdBnH-135">
          <mxGeometry relative="1" as="geometry">
            <mxPoint x="1255" y="990" as="sourcePoint" />
            <mxPoint x="1230" y="1020" as="targetPoint" />
          </mxGeometry>
        </mxCell>
        <mxCell id="yqvrMv8y5e3eXvTjdBnH-152" value="Manage room" style="edgeLabel;html=1;align=center;verticalAlign=middle;resizable=0;points=[];strokeColor=default;fontFamily=Helvetica;fontSize=12;fontColor=default;fillColor=default;" vertex="1" connectable="0" parent="yqvrMv8y5e3eXvTjdBnH-149">
          <mxGeometry x="-0.581" y="2" relative="1" as="geometry">
            <mxPoint x="34" y="-8" as="offset" />
          </mxGeometry>
        </mxCell>
        <mxCell id="yqvrMv8y5e3eXvTjdBnH-150" value="" style="rounded=0;orthogonalLoop=1;jettySize=auto;html=1;endArrow=oval;endFill=0;sketch=0;sourcePerimeterSpacing=0;targetPerimeterSpacing=0;endSize=10;strokeColor=default;align=center;verticalAlign=middle;fontFamily=Helvetica;fontSize=12;fontColor=default;labelBackgroundColor=default;edgeStyle=elbowEdgeStyle;startArrow=box;startFill=0;" edge="1" parent="1" source="5RMnCzaU7pHUcLIJU3OS-3">
          <mxGeometry relative="1" as="geometry">
            <mxPoint x="1215" y="990" as="sourcePoint" />
            <mxPoint x="1230" y="1020" as="targetPoint" />
            <Array as="points">
              <mxPoint x="1566" y="950" />
            </Array>
          </mxGeometry>
        </mxCell>
        <mxCell id="yqvrMv8y5e3eXvTjdBnH-151" value="" style="ellipse;whiteSpace=wrap;html=1;align=center;aspect=fixed;fillColor=none;strokeColor=none;resizable=0;perimeter=centerPerimeter;rotatable=0;allowArrows=0;points=[];outlineConnect=1;verticalAlign=middle;fontFamily=Helvetica;fontSize=12;fontColor=default;" vertex="1" parent="1">
          <mxGeometry x="1230" y="985" width="10" height="10" as="geometry" />
        </mxCell>
        <mxCell id="yqvrMv8y5e3eXvTjdBnH-153" value="" style="endArrow=none;html=1;rounded=0;strokeColor=default;align=center;verticalAlign=middle;fontFamily=Helvetica;fontSize=12;fontColor=default;labelBackgroundColor=default;edgeStyle=elbowEdgeStyle;startArrow=box;startFill=0;entryX=1.005;entryY=0.61;entryDx=0;entryDy=0;entryPerimeter=0;exitX=0.978;exitY=0.431;exitDx=0;exitDy=0;exitPerimeter=0;" edge="1" parent="1" source="yqvrMv8y5e3eXvTjdBnH-146" target="yqvrMv8y5e3eXvTjdBnH-135">
          <mxGeometry width="50" height="50" relative="1" as="geometry">
            <mxPoint x="860" y="1010" as="sourcePoint" />
            <mxPoint x="910" y="960" as="targetPoint" />
          </mxGeometry>
        </mxCell>
        <mxCell id="yqvrMv8y5e3eXvTjdBnH-154" value="" style="endArrow=box;html=1;rounded=0;strokeColor=default;align=center;verticalAlign=middle;fontFamily=Helvetica;fontSize=12;fontColor=default;labelBackgroundColor=default;exitX=0.886;exitY=1.001;exitDx=0;exitDy=0;exitPerimeter=0;entryX=0.596;entryY=0.989;entryDx=0;entryDy=0;entryPerimeter=0;edgeStyle=elbowEdgeStyle;elbow=vertical;endFill=0;" edge="1" parent="1" source="5RMnCzaU7pHUcLIJU3OS-3" target="yqvrMv8y5e3eXvTjdBnH-35">
          <mxGeometry width="50" height="50" relative="1" as="geometry">
            <mxPoint x="1490" y="830" as="sourcePoint" />
            <mxPoint x="1540" y="780" as="targetPoint" />
          </mxGeometry>
        </mxCell>
      </root>
    </mxGraphModel>
  </diagram>
</mxfile>
